<svg width="24" height="24" viewBox="0 0 24 24" fill="none" xmlns="http://www.w3.org/2000/svg">
<path d="M3 10C2.44772 10 2 10.4477 2 11C2 11.5523 2.44772 12 3 12V10ZM21 12C21.5523 12 22 11.5523 22 11C22 10.4477 21.5523 10 21 10V12ZM4.27588 10.3795L5.18969 10.7856V10.7856L4.27588 10.3795ZM5.82214 6.90039L4.90833 6.49425L4.90833 6.49425L5.82214 6.90039ZM18.1777 6.90039L17.2639 7.30653L18.1777 6.90039ZM19.724 10.3795L18.8102 10.7856L18.8102 10.7856L19.724 10.3795ZM19.9148 10.8472L20.8723 10.5586V10.5586L19.9148 10.8472ZM19.9844 11.1742L20.9765 11.0491V11.0491L19.9844 11.1742ZM16.7116 5.11837L17.0505 4.17756L16.7116 5.11837ZM17.4775 5.61633L16.7555 6.30814L16.7555 6.30815L17.4775 5.61633ZM6.52246 5.61633L7.24454 6.30815V6.30815L6.52246 5.61633ZM7.28857 5.11837L7.6275 6.05919H7.6275L7.28857 5.11837ZM4.08496 10.8472L5.04241 11.1358L5.04241 11.1358L4.08496 10.8472ZM4.01572 11.1742L5.00786 11.2993V11.2993L4.01572 11.1742ZM9 17C9 16.4477 8.55228 16 8 16C7.44772 16 7 16.4477 7 17H9ZM17 17C17 16.4477 16.5523 16 16 16C15.4477 16 15 16.4477 15 17H17ZM3 12H21V10H3V12ZM5.18969 10.7856L6.73595 7.30653L4.90833 6.49425L3.36207 9.97334L5.18969 10.7856ZM8.74609 6H15.2536V4H8.74609V6ZM17.2639 7.30653L18.8102 10.7856L20.6378 9.97334L19.0915 6.49425L17.2639 7.30653ZM19 11.6791V17H21V11.6791H19ZM20 16L4 16L4 18L20 18V16ZM5 17V11.6791H3V17H5ZM18.8102 10.7856C18.9233 11.0401 18.9435 11.0896 18.9574 11.1358L20.8723 10.5586C20.8137 10.3642 20.7306 10.1822 20.6378 9.97334L18.8102 10.7856ZM21 11.6791C21 11.4501 21.0019 11.2504 20.9765 11.0491L18.9922 11.2993C18.9983 11.3473 19 11.401 19 11.6791H21ZM18.9574 11.1358C18.9737 11.1901 18.9854 11.2449 18.9922 11.2993L20.9765 11.0491C20.9555 10.8821 20.9203 10.718 20.8723 10.5586L18.9574 11.1358ZM15.2536 6C16.0828 6 16.2478 6.0142 16.3727 6.05919L17.0505 4.17756C16.5182 3.9858 15.9298 4 15.2536 4V6ZM19.0915 6.49425C18.8169 5.87633 18.591 5.33306 18.1996 4.92452L16.7555 6.30815C16.8473 6.40399 16.9271 6.54873 17.2639 7.30653L19.0915 6.49425ZM16.3727 6.05919C16.5176 6.11138 16.6484 6.19642 16.7555 6.30814L18.1996 4.92452C17.8795 4.59041 17.4865 4.33463 17.0505 4.17756L16.3727 6.05919ZM6.73595 7.30653C7.07265 6.54897 7.15267 6.40404 7.24454 6.30815L5.80038 4.92452C5.40901 5.33301 5.18306 5.8761 4.90833 6.49425L6.73595 7.30653ZM8.74609 4C8.06979 4 7.48192 3.98581 6.94965 4.17756L7.6275 6.05919C7.7524 6.01419 7.91693 6 8.74609 6V4ZM7.24454 6.30815C7.35144 6.19657 7.48242 6.11145 7.6275 6.05919L6.94965 4.17756C6.51383 4.33456 6.12064 4.59025 5.80038 4.92452L7.24454 6.30815ZM3.36207 9.97334C3.26945 10.1817 3.18614 10.3641 3.12751 10.5586L5.04241 11.1358C5.05629 11.0897 5.07637 11.0406 5.18969 10.7856L3.36207 9.97334ZM5 11.6791C5 11.4016 5.00179 11.3474 5.00786 11.2993L3.02358 11.0491C2.99821 11.2502 3 11.4495 3 11.6791H5ZM3.12751 10.5586C3.07894 10.7197 3.04441 10.8839 3.02358 11.0491L5.00786 11.2993C5.01496 11.2431 5.02657 11.1883 5.04241 11.1358L3.12751 10.5586ZM3 17V18H5V17H3ZM9 18V17H7V18H9ZM6 21C7.65685 21 9 19.6569 9 18H7C7 18.5523 6.55228 19 6 19V21ZM3 18C3 19.6569 4.34315 21 6 21V19C5.44772 19 5 18.5523 5 18H3ZM15 17V18H17V17H15ZM21 18V17H19V18H21ZM18 21C19.6569 21 21 19.6569 21 18H19C19 18.5523 18.5523 19 18 19V21ZM15 18C15 19.6569 16.3431 21 18 21V19C17.4477 19 17 18.5523 17 18H15Z" fill="white"/>
</svg>
