<svg width="24" height="24" viewBox="0 0 24 24" fill="none" xmlns="http://www.w3.org/2000/svg">
<path d="M5.09277 9.04387L4.43427 8.2913L5.09277 9.04387ZM9.89278 4.84387L9.23427 4.09129L9.23427 4.09129L9.89278 4.84387ZM14.1074 4.84387L13.4489 5.59645V5.59645L14.1074 4.84387ZM18.9074 9.04387L18.2489 9.79645L18.9074 9.04387ZM11.4326 3.73975L11.7162 4.69869L11.4326 3.73975ZM12.5674 3.73975L12.2838 4.69869L12.5674 3.73975ZM4.06497 10.402L5.03249 10.6548L4.06497 10.402ZM4.34521 9.78425L3.51784 9.2226L3.51784 9.2226L4.34521 9.78425ZM4.15224 18.7654L3.22836 19.148H3.22836L4.15224 18.7654ZM9.84766 18.7654L8.92378 18.3827L9.84766 18.7654ZM8.76537 19.8478L9.14805 20.7717L8.76537 19.8478ZM14.1522 18.7654L13.2284 19.148V19.148L14.1522 18.7654ZM19.8477 18.7654L18.9238 18.3827L19.8477 18.7654ZM18.7654 19.8478L19.1481 20.7717L18.7654 19.8478ZM19.9351 10.402L18.9675 10.6548L19.9351 10.402ZM19.6548 9.78425L20.4821 9.2226V9.2226L19.6548 9.78425ZM19 11.4521V17.0001H21V11.4521H19ZM15 17V16H13V17H15ZM9 16V17H11V16H9ZM5 17.0001V11.4521H3V17.0001H5ZM5.75128 9.79645L10.5513 5.59645L9.23427 4.09129L4.43427 8.2913L5.75128 9.79645ZM13.4489 5.59645L18.2489 9.79645L19.5659 8.2913L14.7659 4.09129L13.4489 5.59645ZM10.5513 5.59645C10.9362 5.25967 11.1828 5.04473 11.3841 4.89422C11.5753 4.75121 11.665 4.71383 11.7162 4.69869L11.149 2.7808C10.7801 2.8899 10.4732 3.07794 10.1862 3.29262C9.9092 3.49979 9.596 3.77479 9.23427 4.09129L10.5513 5.59645ZM14.7659 4.09129C14.4041 3.77474 14.0909 3.49975 13.8138 3.29256C13.5267 3.07788 13.2198 2.88988 12.851 2.7808L12.2838 4.69869C12.335 4.71385 12.4249 4.75127 12.6161 4.89428C12.8174 5.04477 13.0641 5.25972 13.4489 5.59645L14.7659 4.09129ZM11.7162 4.69869C11.9013 4.64395 12.0987 4.64395 12.2838 4.69869L12.851 2.7808C12.2957 2.61659 11.7043 2.61659 11.149 2.7808L11.7162 4.69869ZM5 11.4521C5 10.8654 5.00759 10.7501 5.03249 10.6548L3.09746 10.1492C2.99241 10.5512 3 10.9702 3 11.4521H5ZM4.43427 8.2913C4.07166 8.60858 3.75123 8.87878 3.51784 9.2226L5.17259 10.3459C5.22787 10.2645 5.30962 10.1829 5.75128 9.79645L4.43427 8.2913ZM5.03249 10.6548C5.06132 10.5445 5.10873 10.44 5.17259 10.3459L3.51784 9.2226C3.32588 9.50538 3.18378 9.81881 3.09746 10.1492L5.03249 10.6548ZM7.00023 19C6.52061 19 6.21097 18.9995 5.97399 18.9833C5.74599 18.9678 5.65916 18.9411 5.61755 18.9239L4.85218 20.7717C5.17811 20.9067 5.50802 20.9562 5.83785 20.9787C6.15869 21.0006 6.54797 21 7.00023 21V19ZM3 17.0001C3 17.4523 2.99946 17.8416 3.02135 18.1624C3.04386 18.4923 3.09336 18.8221 3.22836 19.148L5.07612 18.3827C5.05888 18.3411 5.03226 18.2542 5.01671 18.0263C5.00054 17.7893 5 17.4797 5 17.0001H3ZM5.61755 18.9239C5.37233 18.8223 5.17754 18.6275 5.07612 18.3827L3.22836 19.148C3.53292 19.8833 4.11729 20.4673 4.85218 20.7717L5.61755 18.9239ZM9 17C9 17.4796 8.99943 17.7892 8.98324 18.0261C8.96767 18.2541 8.94104 18.341 8.92378 18.3827L10.7715 19.148C10.9065 18.8222 10.9561 18.4923 10.9786 18.1625C11.0005 17.8416 11 17.4523 11 17H9ZM7.00023 21C7.45249 21 7.84171 21.0006 8.16251 20.9787C8.49233 20.9562 8.82216 20.9066 9.14805 20.7717L8.38268 18.9239C8.34104 18.9411 8.25424 18.9678 8.02634 18.9833C7.78943 18.9995 7.47986 19 7.00023 19V21ZM8.92378 18.3827C8.82224 18.6278 8.6276 18.8225 8.38268 18.9239L9.14805 20.7717C9.88325 20.4671 10.4671 19.883 10.7715 19.148L8.92378 18.3827ZM12 13C10.3431 13 9 14.3431 9 16H11C11 15.4477 11.4477 15 12 15V13ZM15 16C15 14.3431 13.6569 13 12 13V15C12.5523 15 13 15.4477 13 16H15ZM17.0002 19C16.5206 19 16.211 18.9995 15.974 18.9833C15.746 18.9678 15.6592 18.9411 15.6175 18.9239L14.8522 20.7717C15.1781 20.9067 15.508 20.9562 15.8378 20.9787C16.1587 21.0006 16.548 21 17.0002 21V19ZM13 17C13 17.4523 12.9995 17.8415 13.0213 18.1624C13.0439 18.4922 13.0934 18.8221 13.2284 19.148L15.0761 18.3827C15.0589 18.3411 15.0323 18.2542 15.0167 18.0262C15.0005 17.7893 15 17.4796 15 17H13ZM15.6175 18.9239C15.3723 18.8223 15.1775 18.6275 15.0761 18.3827L13.2284 19.148C13.5329 19.8833 14.1173 20.4673 14.8522 20.7717L15.6175 18.9239ZM19 17.0001C19 17.4797 18.9994 17.7893 18.9832 18.0262C18.9677 18.2541 18.941 18.341 18.9238 18.3827L20.7715 19.148C20.9065 18.8222 20.9561 18.4924 20.9786 18.1625C21.0005 17.8417 21 17.4524 21 17.0001H19ZM17.0002 21C17.4525 21 17.8417 21.0006 18.1625 20.9787C18.4923 20.9562 18.8222 20.9066 19.1481 20.7717L18.3827 18.9239C18.341 18.9411 18.2542 18.9678 18.0263 18.9833C17.7894 18.9995 17.4799 19 17.0002 19V21ZM18.9238 18.3827C18.8222 18.6278 18.6276 18.8225 18.3827 18.9239L19.1481 20.7717C19.8832 20.4671 20.4671 19.883 20.7715 19.148L18.9238 18.3827ZM21 11.4521C21 10.9703 21.0076 10.5512 20.9026 10.1492L18.9675 10.6548C18.9924 10.75 19 10.8654 19 11.4521H21ZM18.2489 9.79645C18.6902 10.1826 18.772 10.2644 18.8274 10.3459L20.4821 9.2226C20.2488 8.87888 19.9289 8.6089 19.5659 8.2913L18.2489 9.79645ZM20.9026 10.1492C20.8162 9.81867 20.674 9.50527 20.4821 9.2226L18.8274 10.3459C18.8913 10.4401 18.9387 10.5446 18.9675 10.6548L20.9026 10.1492Z" fill="white"/>
</svg>
